<svg id="aa5f208c-b7d0-4bd9-a5ff-f17cd2e50a0b" data-name="Layer 1" xmlns="http://www.w3.org/2000/svg" viewBox="0 0 49.8 49.8">
  <defs>
    <style>
      .e04fd62a-45a4-4794-932a-793b9707feb6 {
        fill: #fff;
      }

      .b859228f-5b5e-46f8-a052-179139e8c051 {
        fill: #62b12f;
      }
    </style>
  </defs>
  <rect id="ae133aeb-15de-4725-a98e-1e0d898ad5a2" data-name="rect832" width="49.8" height="49.8" rx="4.97"/>
  <g id="a4787514-863f-437d-8ce3-e13c857640ca" data-name="g6-6">
    <path id="ea5f136e-a125-4967-82a1-1b5209c4636b" data-name="path2-8" class="e04fd62a-45a4-4794-932a-793b9707feb6" d="M41.35,16.61a1.91,1.91,0,0,0-1.84,2.14v4.74H37.87V15.14h1.62v1a2.21,2.21,0,0,1,2-1.08H42v1.53Zm-4.62,2.71A4.16,4.16,0,0,0,32.56,15a4.31,4.31,0,0,0-4.27,4.33v0a4.46,4.46,0,0,0,8,2.58L35.13,21a2.89,2.89,0,0,1-2.41,1.21A2.79,2.79,0,0,1,30,19.85h6.78ZM30,18.55a2.65,2.65,0,0,1,2.55-2.14,2.6,2.6,0,0,1,2.53,2.14ZM23.08,15a4.15,4.15,0,0,0-2.95,1.24V12H18.48V23.49h1.63V22.43a4.24,4.24,0,0,0,3,1.26A4.37,4.37,0,0,0,23.27,15h-.19ZM23,22.22a2.9,2.9,0,1,1,2.88-2.91v0A2.86,2.86,0,0,1,23,22.21h0Zm-10.53-.08a2.83,2.83,0,0,0,2.82-3V12H17V23.49H15.27V22.41a4.19,4.19,0,0,1-3,1.27A4.25,4.25,0,0,1,7.9,19.19V12H9.64v7.09A2.78,2.78,0,0,0,12.43,22.14Z" transform="translate(-0.06 -0.09)"/>
    <path id="b8a3ab53-18ef-454c-9da6-ae9cd7c82a41" data-name="path4-2" class="b859228f-5b5e-46f8-a052-179139e8c051" d="M7.86,26.27h8.07v2H10v2.8h5.73V33H10V35.8h5.89v2H7.86ZM38.2,38c2.48,0,3.87-1.18,3.87-2.81,0-1.15-.83-2-2.55-2.39l-1.83-.38c-1.06-.19-1.39-.39-1.39-.79s.51-.82,1.45-.82,1.78.27,2,1.22h2.14c-.11-1.78-1.39-2.95-4-2.95-2.24,0-3.81.92-3.81,2.71,0,1.24.87,2,2.73,2.44l2,.47c.81.16,1,.37,1,.71,0,.53-.61.86-1.59.86C37,36.25,36.33,36,36.06,35H33.9c.32,1.78,1.63,2.95,4.3,2.95Zm-4.92-.21H31a2,2,0,0,1-2.26-2.05V31.21H27.08V29.28h1.64V26.86h2.15v2.42h2.41v1.93H30.87v4c0,.46.31.67.8.67h1.61ZM24,29.28v.77a4.21,4.21,0,0,0-2.71-1A4.46,4.46,0,1,0,21.11,38a.61.61,0,0,0,.19,0A4.14,4.14,0,0,0,24,37v.76h2.14V29.28Zm-2.53,6.84A2.6,2.6,0,1,1,24,33.5v0a2.57,2.57,0,0,1-2.54,2.59h0Z" transform="translate(-0.06 -0.09)"/>
  </g>
</svg>
