<?xml version="1.0" encoding="utf-8"?>
<!-- Generator: Adobe Illustrator 24.1.0, SVG Export Plug-In . SVG Version: 6.00 Build 0)  -->
<svg version="1.1" id="Layer_1" xmlns="http://www.w3.org/2000/svg" xmlns:xlink="http://www.w3.org/1999/xlink" x="0px" y="0px"
	 viewBox="0 0 180 24" style="enable-background:new 0 0 180 24;" xml:space="preserve">
<style type="text/css">
	.st0{fill:#FFFFFF;}
	.st1{fill:#49AA26;}
	.st2{font-family:'HelveticaNeue-Bold';}
	.st3{font-size:31.1445px;}
</style>
<path class="st0" d="M59.2,21.5c-0.6,0-1-0.2-1.4-0.6c-0.4-0.4-0.6-0.9-0.6-1.4c0-0.6,0.2-1.1,0.6-1.4c0.4-0.4,0.8-0.6,1.4-0.6
	c0.5,0,1,0.2,1.4,0.6c0.4,0.4,0.6,0.9,0.6,1.4c0,0.6-0.2,1.1-0.6,1.4C60.2,21.4,59.8,21.5,59.2,21.5z"/>
<path class="st0" d="M70.7,8.7h-2.7v12.7h-3.1V8.7h-1.7V6.1h1.7V5c0-1.8,0.4-3,1.3-3.8C67.1,0.4,68.5,0,70.5,0v2.6
	c-0.9,0-1.6,0.2-2,0.6c-0.4,0.4-0.6,1-0.6,1.9v1.1h2.7V8.7z"/>
<path class="st0" d="M75,4.1c-0.6,0-1-0.2-1.4-0.6C73.2,3.1,73,2.6,73,2.1c0-0.6,0.2-1.1,0.6-1.4c0.4-0.4,0.8-0.6,1.4-0.6
	c0.5,0,1,0.2,1.4,0.6c0.4,0.4,0.6,0.9,0.6,1.4c0,0.6-0.2,1.1-0.6,1.4C76,3.9,75.5,4.1,75,4.1z M76.5,6.1v15.2h-3.1V6.1H76.5z"/>
<path class="st0" d="M88,5.9c1.2,0,2.2,0.2,3.1,0.7c0.9,0.5,1.7,1.2,2.2,2.2c0.5,1,0.8,2.2,0.8,3.5v9h-3v-8.5c0-1.4-0.3-2.4-1-3.1
	c-0.7-0.7-1.6-1.1-2.7-1.1S85.2,9,84.6,9.7c-0.7,0.7-1,1.8-1,3.1v8.5h-3.1V6.1h3.1v1.7c0.5-0.6,1.1-1.1,1.9-1.5
	C86.3,6,87.1,5.9,88,5.9z"/>
<path class="st0" d="M96.9,13.7c0-1.5,0.3-2.9,0.9-4.1c0.6-1.2,1.5-2.1,2.5-2.7c1.1-0.7,2.3-1,3.6-1c1.2,0,2.2,0.2,3,0.7
	c0.9,0.5,1.6,1,2.1,1.7V6.1h3.1v15.2h-3.1v-2.3c-0.5,0.7-1.2,1.3-2.1,1.8c-0.9,0.5-1.9,0.7-3.1,0.7c-1.3,0-2.4-0.3-3.5-1
	c-1.1-0.7-1.9-1.6-2.5-2.8C97.2,16.6,96.9,15.2,96.9,13.7z M109.1,13.7c0-1.1-0.2-2-0.6-2.7c-0.4-0.8-1-1.4-1.6-1.8
	c-0.7-0.4-1.4-0.6-2.2-0.6c-0.8,0-1.5,0.2-2.2,0.6c-0.7,0.4-1.2,1-1.7,1.7c-0.4,0.8-0.6,1.7-0.6,2.7c0,1.1,0.2,2,0.6,2.8
	c0.4,0.8,1,1.4,1.7,1.8c0.7,0.4,1.4,0.6,2.2,0.6c0.8,0,1.5-0.2,2.2-0.6c0.7-0.4,1.2-1,1.6-1.8C108.9,15.7,109.1,14.8,109.1,13.7z"/>
<path class="st0" d="M123.7,5.9c1.2,0,2.2,0.2,3.1,0.7c0.9,0.5,1.7,1.2,2.2,2.2c0.5,1,0.8,2.2,0.8,3.5v9h-3v-8.5
	c0-1.4-0.3-2.4-1-3.1C125,9,124.1,8.6,123,8.6c-1.1,0-2.1,0.4-2.7,1.1c-0.7,0.7-1,1.8-1,3.1v8.5h-3.1V6.1h3.1v1.7
	c0.5-0.6,1.1-1.1,1.9-1.5C122,6,122.8,5.9,123.7,5.9z"/>
<path class="st0" d="M132.6,13.7c0-1.6,0.3-2.9,0.9-4.1c0.6-1.2,1.5-2.1,2.6-2.8c1.1-0.6,2.3-1,3.8-1c1.8,0,3.3,0.4,4.4,1.3
	c1.2,0.9,2,2.1,2.4,3.7h-3.3c-0.3-0.8-0.7-1.3-1.3-1.8c-0.6-0.4-1.3-0.6-2.2-0.6c-1.3,0-2.3,0.5-3,1.4c-0.7,0.9-1.1,2.2-1.1,3.8
	s0.4,2.9,1.1,3.8c0.8,0.9,1.8,1.4,3,1.4c1.8,0,2.9-0.8,3.5-2.4h3.3c-0.4,1.5-1.2,2.8-2.4,3.7c-1.2,0.9-2.7,1.4-4.4,1.4
	c-1.4,0-2.7-0.3-3.8-1c-1.1-0.7-2-1.6-2.6-2.8C132.9,16.7,132.6,15.3,132.6,13.7z"/>
<path class="st0" d="M163.4,13.4c0,0.6,0,1.1-0.1,1.5h-11.3c0.1,1.2,0.5,2.2,1.3,2.9c0.8,0.7,1.8,1.1,2.9,1.1c1.7,0,2.8-0.7,3.5-2.1
	h3.3c-0.4,1.4-1.3,2.6-2.4,3.5c-1.2,0.9-2.6,1.3-4.4,1.3c-1.4,0-2.7-0.3-3.8-1c-1.1-0.7-2-1.6-2.6-2.8c-0.6-1.2-0.9-2.6-0.9-4.1
	s0.3-2.9,0.9-4.1c0.6-1.2,1.5-2.1,2.6-2.8c1.1-0.6,2.4-1,3.9-1c1.4,0,2.6,0.3,3.7,0.9c1.1,0.6,1.9,1.5,2.6,2.7
	C163.1,10.6,163.4,11.9,163.4,13.4z M160.2,12.4c0-1.2-0.4-2.1-1.2-2.8c-0.8-0.7-1.8-1.1-2.9-1.1c-1.1,0-2,0.4-2.7,1.1
	c-0.8,0.7-1.2,1.6-1.3,2.8H160.2z"/>
<path class="st1" d="M59.2,21.5c-0.6,0-1-0.2-1.4-0.6c-0.4-0.4-0.6-0.9-0.6-1.4s0.2-1.1,0.6-1.4c0.4-0.4,0.8-0.6,1.4-0.6
	c0.5,0,1,0.2,1.4,0.6c0.4,0.4,0.6,0.9,0.6,1.4S61,20.6,60.6,21C60.2,21.4,59.8,21.5,59.2,21.5z"/>
<path class="st1" d="M178.6,17.3c0,0.8-0.2,1.5-0.7,2.2c-0.4,0.7-1.1,1.3-2,1.7c-0.9,0.5-1.9,0.7-3,0.8V24h-1.8v-1.9
	c-1.7-0.1-3.1-0.6-4.1-1.4s-1.6-1.8-1.6-3.1h3.3c0.1,0.6,0.3,1.1,0.7,1.5c0.4,0.4,1,0.6,1.7,0.7v-5.2c-1.2-0.3-2.2-0.5-3-0.8
	c-0.8-0.3-1.4-0.7-2-1.3c-0.5-0.6-0.8-1.4-0.8-2.4c0-1.3,0.5-2.4,1.6-3.2c1.1-0.9,2.4-1.4,4.1-1.5V3.6h1.8v1.9
	c1.6,0.1,2.9,0.6,3.8,1.3c1,0.7,1.5,1.7,1.7,3h-3.3c-0.1-0.5-0.3-0.9-0.7-1.3c-0.4-0.4-0.9-0.7-1.5-0.8v5.1c1.2,0.2,2.2,0.5,3,0.8
	c0.8,0.3,1.4,0.7,1.9,1.3C178.4,15.5,178.6,16.3,178.6,17.3z M168.6,10.1c0,0.6,0.2,1.1,0.7,1.5c0.5,0.4,1.1,0.6,1.9,0.9V7.7
	c-0.8,0.1-1.4,0.3-1.9,0.7C168.9,8.8,168.6,9.4,168.6,10.1z M173,19.9c0.8-0.1,1.4-0.4,1.9-0.8c0.5-0.5,0.7-1,0.7-1.6
	c0-0.6-0.2-1.1-0.7-1.5c-0.4-0.4-1.1-0.6-1.9-0.9V19.9z"/>
<text transform="matrix(1 0 0 1 0.1219 22.1917)" class="st2 st3">ride</text>
</svg>
