<?xml version="1.0" encoding="utf-8"?>
<!-- Generator: Adobe Illustrator 24.1.0, SVG Export Plug-In . SVG Version: 6.00 Build 0)  -->
<svg version="1.1" id="Layer_1" xmlns="http://www.w3.org/2000/svg" xmlns:xlink="http://www.w3.org/1999/xlink" x="0px" y="0px"
	 viewBox="0 0 180 24" style="enable-background:new 0 0 180 24;" xml:space="preserve">
<style type="text/css">
	.st0{fill:#008B51;}
	.st1{fill:#FFFFFF;}
	.st2{enable-background:new    ;}
	.st3{fill:#FFFFFF;stroke:#FFFFFF;stroke-miterlimit:10;}
</style>
<path class="st0" d="M176.2,21.5c-0.6,0-1-0.2-1.4-0.6c-0.4-0.4-0.6-0.9-0.6-1.4c0-0.6,0.2-1.1,0.6-1.4c0.4-0.4,0.8-0.6,1.4-0.6
	c0.5,0,1,0.2,1.4,0.6c0.4,0.4,0.6,0.9,0.6,1.4c0,0.6-0.2,1.1-0.6,1.4C177.2,21.4,176.8,21.5,176.2,21.5z"/>
<path class="st1" d="M80.7,8.7H78v12.7h-3.1V8.7h-1.7V6.1h1.7V5c0-1.8,0.4-3,1.3-3.8C77.1,0.4,78.5,0,80.5,0v2.6
	c-0.9,0-1.6,0.2-2,0.6s-0.6,1-0.6,1.9v1.1h2.7L80.7,8.7L80.7,8.7z"/>
<path class="st1" d="M85,4.1c-0.6,0-1-0.2-1.4-0.6S83,2.6,83,2.1c0-0.6,0.2-1.1,0.6-1.4C84,0.3,84.4,0.1,85,0.1c0.5,0,1,0.2,1.4,0.6
	S87,1.6,87,2.1c0,0.6-0.2,1.1-0.6,1.4C86,3.9,85.5,4.1,85,4.1z M86.5,6.1v15.2h-3.1V6.1H86.5z"/>
<path class="st1" d="M98,5.9c1.2,0,2.2,0.2,3.1,0.7s1.7,1.2,2.2,2.2s0.8,2.2,0.8,3.5v9h-3v-8.5c0-1.4-0.3-2.4-1-3.1
	c-0.7-0.7-1.6-1.1-2.7-1.1S95.2,9,94.6,9.7c-0.7,0.7-1,1.8-1,3.1v8.5h-3.1V6.1h3.1v1.7c0.5-0.6,1.1-1.1,1.9-1.5
	C96.3,6,97.1,5.9,98,5.9z"/>
<path class="st1" d="M106.9,13.7c0-1.5,0.3-2.9,0.9-4.1s1.5-2.1,2.5-2.7c1.1-0.7,2.3-1,3.6-1c1.2,0,2.2,0.2,3,0.7
	c0.9,0.5,1.6,1,2.1,1.7V6.1h3.1v15.2H119V19c-0.5,0.7-1.2,1.3-2.1,1.8s-1.9,0.7-3.1,0.7c-1.3,0-2.4-0.3-3.5-1s-1.9-1.6-2.5-2.8
	C107.2,16.6,106.9,15.2,106.9,13.7z M119.1,13.7c0-1.1-0.2-2-0.6-2.7c-0.4-0.8-1-1.4-1.6-1.8c-0.7-0.4-1.4-0.6-2.2-0.6
	c-0.8,0-1.5,0.2-2.2,0.6c-0.7,0.4-1.2,1-1.7,1.7c-0.4,0.8-0.6,1.7-0.6,2.7c0,1.1,0.2,2,0.6,2.8c0.4,0.8,1,1.4,1.7,1.8
	s1.4,0.6,2.2,0.6c0.8,0,1.5-0.2,2.2-0.6s1.2-1,1.6-1.8C118.9,15.7,119.1,14.8,119.1,13.7z"/>
<path class="st1" d="M133.7,5.9c1.2,0,2.2,0.2,3.1,0.7c0.9,0.5,1.7,1.2,2.2,2.2s0.8,2.2,0.8,3.5v9h-3v-8.5c0-1.4-0.3-2.4-1-3.1
	C135,9,134.1,8.6,133,8.6s-2.1,0.4-2.7,1.1c-0.7,0.7-1,1.8-1,3.1v8.5h-3.1V6.1h3.1v1.7c0.5-0.6,1.1-1.1,1.9-1.5
	C132,6,132.8,5.9,133.7,5.9z"/>
<path class="st1" d="M142.6,13.7c0-1.6,0.3-2.9,0.9-4.1c0.6-1.2,1.5-2.1,2.6-2.8c1.1-0.6,2.3-1,3.8-1c1.8,0,3.3,0.4,4.4,1.3
	c1.2,0.9,2,2.1,2.4,3.7h-3.3c-0.3-0.8-0.7-1.3-1.3-1.8c-0.6-0.4-1.3-0.6-2.2-0.6c-1.3,0-2.3,0.5-3,1.4s-1.1,2.2-1.1,3.8
	s0.4,2.9,1.1,3.8c0.8,0.9,1.8,1.4,3,1.4c1.8,0,2.9-0.8,3.5-2.4h3.3c-0.4,1.5-1.2,2.8-2.4,3.7c-1.2,0.9-2.7,1.4-4.4,1.4
	c-1.4,0-2.7-0.3-3.8-1s-2-1.6-2.6-2.8C142.9,16.7,142.6,15.3,142.6,13.7z"/>
<path class="st1" d="M173.4,13.4c0,0.6,0,1.1-0.1,1.5H162c0.1,1.2,0.5,2.2,1.3,2.9c0.8,0.7,1.8,1.1,2.9,1.1c1.7,0,2.8-0.7,3.5-2.1
	h3.3c-0.4,1.4-1.3,2.6-2.4,3.5c-1.2,0.9-2.6,1.3-4.4,1.3c-1.4,0-2.7-0.3-3.8-1s-2-1.6-2.6-2.8c-0.6-1.2-0.9-2.6-0.9-4.1
	s0.3-2.9,0.9-4.1c0.6-1.2,1.5-2.1,2.6-2.8c1.1-0.6,2.4-1,3.9-1c1.4,0,2.6,0.3,3.7,0.9c1.1,0.6,1.9,1.5,2.6,2.7
	C173.1,10.6,173.4,11.9,173.4,13.4z M170.2,12.4c0-1.2-0.4-2.1-1.2-2.8s-1.8-1.1-2.9-1.1c-1.1,0-2,0.4-2.7,1.1
	c-0.8,0.7-1.2,1.6-1.3,2.8H170.2z"/>
<path class="st0" d="M71.6,17.3c0,0.8-0.2,1.5-0.7,2.2c-0.4,0.7-1.1,1.3-2,1.7c-0.9,0.5-1.9,0.7-3,0.8v2h-1.8v-1.9
	C62.4,22,61,21.5,60,20.7s-1.6-1.8-1.6-3.1h3.3c0.1,0.6,0.3,1.1,0.7,1.5s1,0.6,1.7,0.7v-5.2c-1.2-0.3-2.2-0.5-3-0.8s-1.4-0.7-2-1.3
	c-0.5-0.6-0.8-1.4-0.8-2.4c0-1.3,0.5-2.4,1.6-3.2C61,6,62.3,5.5,64,5.4V3.6h1.8v1.9c1.6,0.1,2.9,0.6,3.8,1.3c1,0.7,1.5,1.7,1.7,3H68
	c-0.1-0.5-0.3-0.9-0.7-1.3c-0.4-0.4-0.9-0.7-1.5-0.8v5.1c1.2,0.2,2.2,0.5,3,0.8s1.4,0.7,1.9,1.3C71.4,15.5,71.6,16.3,71.6,17.3z
	 M61.6,10.1c0,0.6,0.2,1.1,0.7,1.5s1.1,0.6,1.9,0.9V7.7c-0.8,0.1-1.4,0.3-1.9,0.7C61.9,8.8,61.6,9.4,61.6,10.1z M66,19.9
	c0.8-0.1,1.4-0.4,1.9-0.8c0.5-0.5,0.7-1,0.7-1.6s-0.2-1.1-0.7-1.5c-0.4-0.4-1.1-0.6-1.9-0.9V19.9z"/>
<g class="st2">
	<path class="st3" d="M6,6.1v3h0.1c0.2-0.5,0.5-1,0.8-1.4c0.4-0.4,0.8-0.8,1.2-1.1c0.5-0.3,0.9-0.5,1.5-0.7c0.5-0.2,1.1-0.2,1.6-0.2
		c0.3,0,0.6,0.1,1,0.2v4.1c-0.2,0-0.5-0.1-0.7-0.1c-0.3,0-0.6,0-0.8,0c-0.8,0-1.5,0.1-2.1,0.4s-1,0.6-1.4,1.1
		c-0.3,0.5-0.6,1-0.7,1.6c-0.1,0.6-0.2,1.3-0.2,2v7.3H1.8V6.1H6z"/>
	<path class="st3" d="M14,3.6V0h4.4v3.6H14z M18.5,6.1v16.1H14V6.1H18.5z"/>
	<path class="st3" d="M33.4,20.1c-0.5,0.9-1.2,1.5-2,1.9c-0.8,0.4-1.8,0.6-2.8,0.6c-1.2,0-2.3-0.2-3.2-0.7c-0.9-0.5-1.7-1.1-2.3-1.9
		c-0.6-0.8-1-1.7-1.3-2.8c-0.3-1-0.5-2.1-0.5-3.2c0-1.1,0.2-2.1,0.5-3.1c0.3-1,0.7-1.9,1.3-2.7c0.6-0.8,1.3-1.4,2.2-1.9
		c0.9-0.5,1.9-0.7,3.1-0.7c1,0,1.9,0.2,2.7,0.6c0.9,0.4,1.5,1,2,1.8h0.1V0h4.4v22.2h-4.2L33.4,20.1L33.4,20.1z M33.2,12.2
		c-0.1-0.6-0.3-1.2-0.6-1.6c-0.3-0.5-0.7-0.8-1.2-1.1C30.9,9.1,30.3,9,29.6,9c-0.7,0-1.3,0.1-1.8,0.4c-0.5,0.3-0.9,0.7-1.2,1.2
		c-0.3,0.5-0.5,1-0.7,1.6c-0.1,0.6-0.2,1.3-0.2,1.9c0,0.6,0.1,1.2,0.2,1.9c0.1,0.6,0.4,1.2,0.7,1.7c0.3,0.5,0.7,0.9,1.2,1.2
		c0.5,0.3,1.1,0.5,1.8,0.5c0.7,0,1.3-0.1,1.8-0.4c0.5-0.3,0.9-0.7,1.2-1.2c0.3-0.5,0.5-1,0.6-1.7c0.1-0.6,0.2-1.3,0.2-1.9
		C33.4,13.4,33.3,12.8,33.2,12.2z"/>
	<path class="st3" d="M45.7,18.3c0.7,0.6,1.6,1,2.9,1c0.9,0,1.7-0.2,2.3-0.7c0.6-0.4,1-0.9,1.2-1.4H56c-0.6,1.9-1.6,3.3-2.9,4.1
		c-1.3,0.8-2.8,1.2-4.7,1.2c-1.3,0-2.4-0.2-3.4-0.6c-1-0.4-1.9-1-2.6-1.7c-0.7-0.7-1.3-1.6-1.6-2.7c-0.4-1-0.6-2.2-0.6-3.4
		c0-1.2,0.2-2.3,0.6-3.4c0.4-1,1-1.9,1.7-2.7c0.7-0.8,1.6-1.4,2.6-1.8c1-0.4,2.1-0.7,3.3-0.7c1.4,0,2.6,0.3,3.6,0.8
		c1,0.5,1.9,1.2,2.5,2.1c0.7,0.9,1.1,1.9,1.4,3.1c0.3,1.1,0.4,2.3,0.3,3.6H44.6C44.7,16.6,45.1,17.7,45.7,18.3z M50.7,9.9
		C50.2,9.3,49.4,9,48.3,9c-0.7,0-1.3,0.1-1.8,0.4c-0.5,0.2-0.8,0.5-1.1,0.9c-0.3,0.4-0.5,0.7-0.6,1.1c-0.1,0.4-0.2,0.7-0.2,1.1h7.2
		C51.6,11.3,51.2,10.4,50.7,9.9z"/>
</g>
</svg>
